<?xml version="1.0" encoding="UTF-8"?><svg id="Layer_1" xmlns="http://www.w3.org/2000/svg" viewBox="0 0 838.68 309.74"><defs><style>.cls-1{fill:#69a7bf;}.cls-2{fill:#f27405;}</style></defs><g><g><g><path class="cls-1" d="M0,245.32v-70.64c0-6.15,4.99-11.14,11.14-11.14h.13c6.15,0,11.14,4.99,11.14,11.14v25.75H55.39v-25.75c0-6.15,4.99-11.14,11.14-11.14h0c6.15,0,11.14,4.99,11.14,11.14v70.64c0,6.15-4.99,11.14-11.14,11.14h0c-6.15,0-11.14-4.99-11.14-11.14v-27.66H22.4v27.66c0,6.15-4.99,11.14-11.14,11.14h-.13c-6.15,0-11.14-4.99-11.14-11.14Z"/><path class="cls-1" d="M129.23,163.54h0c6.32,0,11.97,3.94,14.16,9.86l25.2,68.2c2.66,7.2-2.67,14.85-10.35,14.85h-.12c-4.82,0-9.09-3.14-10.53-7.74l-3.01-9.62h-30.69l-2.96,9.58c-1.43,4.62-5.7,7.77-10.54,7.77h0c-7.67,0-12.99-7.63-10.35-14.83l25.01-68.19c2.18-5.95,7.84-9.9,14.17-9.9Zm10.01,58.26l-10.02-32.23-9.95,32.23h19.97Z"/><path class="cls-1" d="M190.16,226.34h1.68c4.2,0,8.11,2.52,9.5,6.49,.64,1.83,1.61,3.34,2.9,4.52,2.57,2.36,6.75,3.54,12.54,3.54,3.7,0,6.63-.8,8.77-2.39,2.15-1.6,3.22-3.84,3.22-6.73,0-3.28-1.16-5.83-3.48-7.66-2.32-1.83-6.39-3.72-12.22-5.68-5.83-1.96-10.59-3.85-14.29-5.68-12.04-5.91-18.06-14.04-18.06-24.38,0-5.15,1.5-9.69,4.5-13.62,3-3.93,7.24-7,12.73-9.19,5.49-2.19,11.66-3.29,18.51-3.29s12.67,1.19,17.96,3.57,9.41,5.77,12.35,10.18c.03,.04,.06,.09,.09,.13,4.22,6.42-.57,14.96-8.25,14.96h-2.14c-3.82,0-7.15-2.32-8.81-5.76-.56-1.16-1.33-2.18-2.29-3.05-2.32-2.08-5.46-3.13-9.41-3.13s-7.16,.88-9.48,2.65c-2.32,1.77-3.48,4.01-3.48,6.73,0,2.38,1.28,4.54,3.83,6.48,2.55,1.94,7.04,3.94,13.46,6,6.42,2.06,11.7,4.29,15.83,6.67,10.04,5.79,15.06,13.76,15.06,23.93,0,8.13-3.06,14.51-9.19,19.14-6.13,4.64-14.53,6.96-25.21,6.96-7.53,0-14.35-1.35-20.45-4.05-6.1-2.7-10.7-6.4-13.78-11.1-.35-.54-.68-1.08-1-1.64-3.67-6.53,1.12-14.61,8.62-14.61Z"/><path class="cls-1" d="M271.97,226.34h1.67c4.2,0,8.11,2.52,9.5,6.49,.64,1.83,1.61,3.34,2.9,4.52,2.57,2.36,6.75,3.54,12.54,3.54,3.7,0,6.62-.8,8.77-2.39,2.15-1.6,3.22-3.84,3.22-6.73,0-3.28-1.16-5.83-3.48-7.66-2.32-1.83-6.39-3.72-12.22-5.68-5.83-1.96-10.59-3.85-14.29-5.68-12.04-5.91-18.06-14.04-18.06-24.38,0-5.15,1.5-9.69,4.5-13.62,3-3.93,7.24-7,12.73-9.19,5.49-2.19,11.66-3.29,18.51-3.29s12.67,1.19,17.96,3.57c5.3,2.38,9.41,5.77,12.35,10.18,.03,.04,.06,.09,.09,.13,4.22,6.41-.57,14.96-8.25,14.96h-2.14c-3.82,0-7.15-2.32-8.81-5.76-.56-1.16-1.33-2.18-2.29-3.05-2.32-2.08-5.46-3.13-9.41-3.13s-7.16,.88-9.48,2.65c-2.32,1.77-3.48,4.01-3.48,6.73,0,2.38,1.28,4.54,3.83,6.48,2.55,1.94,7.04,3.94,13.46,6,6.42,2.06,11.7,4.29,15.83,6.67,10.04,5.79,15.06,13.76,15.06,23.93,0,8.13-3.06,14.51-9.19,19.14-6.13,4.64-14.53,6.96-25.21,6.96-7.53,0-14.35-1.35-20.45-4.05-6.1-2.7-10.7-6.4-13.78-11.1-.35-.54-.68-1.08-1-1.64-3.67-6.53,1.12-14.61,8.62-14.61Z"/><path class="cls-1" d="M408.59,171.87v.64c0,4.6-3.73,8.33-8.33,8.33h-33.41v19.59h26.9c4.6,0,8.33,3.73,8.33,8.33h0c0,4.6-3.73,8.33-8.33,8.33h-26.9v22.14h33.28c4.6,0,8.33,3.73,8.33,8.33v.58c0,4.6-3.73,8.33-8.33,8.33h-55.68v-92.91h55.8c4.6,0,8.33,3.73,8.33,8.33Z"/><path class="cls-1" d="M481.72,171.87v.64c0,4.6-3.73,8.33-8.33,8.33h-33.41v19.59h26.9c4.6,0,8.33,3.73,8.33,8.33h0c0,4.6-3.73,8.33-8.33,8.33h-26.9v22.14h33.28c4.6,0,8.33,3.73,8.33,8.33v.58c0,4.6-3.73,8.33-8.33,8.33h-55.68v-92.91h55.8c4.6,0,8.33,3.73,8.33,8.33Z"/><path class="cls-1" d="M524.1,163.54c11.95,0,21.05,2.19,27.28,6.57,6.23,4.38,9.35,10.74,9.35,19.08,0,4.81-1.11,8.91-3.32,12.32-2.21,3.4-5.47,5.91-9.76,7.53,4.85,1.28,8.57,3.66,11.17,7.15s3.89,7.74,3.89,12.76c0,9.1-2.88,15.94-8.65,20.52s-14.3,6.9-25.62,6.99h-37.71v-92.91h33.37Zm-10.98,38.74h11.68c4.89-.04,8.38-.94,10.46-2.68,2.08-1.74,3.13-4.32,3.13-7.72,0-3.91-1.13-6.73-3.38-8.46-2.26-1.72-5.89-2.58-10.91-2.58h-10.98v21.44Zm0,36.95h14.68c4.04,0,7.15-.92,9.32-2.78,2.17-1.85,3.25-4.46,3.25-7.82,0-7.74-3.85-11.63-11.55-11.68h-15.7v22.27Z"/></g><g><path class="cls-2" d="M214.06,130.11c-3.96,0-7.06,1.3-9.32,3.89-1.83,2.08-2.74,4.59-2.74,7.53s.96,5.42,2.87,7.47c2.25,2.42,5.32,3.64,9.19,3.64s6.91-1.19,9.12-3.57c2-2,3-4.51,3-7.53s-.98-5.51-2.94-7.59c-2.21-2.55-5.28-3.83-9.19-3.83Z"/><path class="cls-2" d="M280.75,131.39c-3.83,0-6.87,1.21-9.13,3.64-1.83,2.13-2.74,4.64-2.74,7.53s.91,5.4,2.74,7.53c2.25,2.42,5.3,3.64,9.13,3.64s6.79-1.13,8.87-3.38c2.13-2.26,3.19-4.85,3.19-7.78s-1.06-5.53-3.19-7.79c-2.08-2.26-5.04-3.38-8.87-3.38Z"/><path class="cls-2" d="M308.13,131.39c-3.83,0-6.87,1.21-9.12,3.64-1.83,2.13-2.74,4.64-2.74,7.53s.91,5.4,2.74,7.53c2.25,2.42,5.3,3.64,9.12,3.64s6.79-1.13,8.87-3.38c2.13-2.26,3.19-4.85,3.19-7.78s-1.06-5.53-3.19-7.79c-2.08-2.26-5.04-3.38-8.87-3.38Z"/><path class="cls-1" d="M551.47,103.69c-2.68-3.23-4.02-8.46-4.02-15.7,0-9.44-3.4-17.72-10.21-24.82-7.15-7.44-15.63-11.17-25.46-11.17-6.72,0-12.83,1.66-18.31,4.98-2.95,1.75-5.7,4.11-8.27,7.1-4.18,4.86-2.65,12.38,3.02,15.37l.62,.32c4.24,2.24,9.41,1.12,12.5-2.55,3.2-3.8,6.68-5.7,10.44-5.7s6.81,1.47,9.44,4.4c2.93,3.23,4.4,7.02,4.4,11.36,0,10.76,.68,17.25,2.04,19.46h-85.73v-39.76c0-6.06-4.91-10.98-10.98-10.98s-10.98,4.91-10.98,10.98v39.76h-1.34c-4.43,0-7.74-1.62-9.96-4.85-2.13-3.11-3.38-7.44-3.76-13.02v-13.78c0-6.06-4.91-10.98-10.98-10.98h-.13c-6.06,0-10.98,4.91-10.98,10.98v31.65h-1.15c-5.02,0-8.64-2.02-10.85-6.06-2.08-3.83-3.13-9.02-3.13-15.57v-10.02c0-6.06-4.91-10.98-10.98-10.98h-.06c-6.06,0-10.98,4.91-10.98,10.98v31.65h-28.14c-4.3-.04-7.53-1.66-9.7-4.85-2.13-3.11-3.38-7.44-3.77-13.02v-21.79c0-6.08-4.93-11.01-11.01-11.01h-.06c-6.08,0-11.01,4.93-11.01,11.01v39.66h-25.91v-39.53c0-6.08-4.93-11.01-11.01-11.01s-11.01,4.93-11.01,11.01v39.53h-42.44c-4.59,0-8.3-1.38-11.1-4.15-2.81-2.68-4.21-6.08-4.21-10.21,0-3.39,1.37-6.53,4.11-9.43,3.34-3.53,3.97-8.83,1.44-12.98h0c-3.52-5.77-11.5-6.9-16.41-2.25-7.48,7.08-11.23,15.3-11.23,24.66s3.28,17.32,9.83,23.74c6.93,6.76,15.59,10.15,25.97,10.15h372.63v-19.53c-5.83,0-9.57-1.02-11.23-3.06Z"/></g></g><g><path class="cls-1" d="M745.33,306.8c14.64-2.35,28.1-9.71,37.57-21.12,.5-.6,.99-1.21,1.48-1.82,7.57-9.53,8.86-20.13,3.49-30.43-5.19-9.95-12.3-18.9-18.66-28.23-1.3-1.9-3.01-3.53-5.27-6.14,28.58-6.62,43.27-25.16,46.61-53.55,8.59,1.93,15.98,.52,22.13-5.34,4.21-4.02,6.05-9.01,6-14.82-.12-12.66-10.03-20.1-25.8-19.25-1.4-9.85-2.4-19.78-4.33-29.53-1.55-7.8-3.88-15.5-6.5-23.03-7.87-22.61-23.96-37.93-44.48-49.25C725.75,6.75,691.85-2.11,655.4,.43c-19.8,1.39-38.66,6.82-56.4,15.8-1.65,.83-3.72,3.06-3.62,4.51,.11,1.53,2.31,3.53,4.05,4.24,13.09,5.36,26.28,10.45,39.92,15.81-10.18,12.03-18.4,25.2-22.64,40.2-4.18,14.82-6.95,30.05-10.45,45.6-7.03-1.41-14.47,.33-20.38,6.7-3.66,3.96-5.56,8.65-5.28,14.11,.64,12.8,10.89,19.65,28.6,18.74,2.56,25.41,14.53,43.82,40.83,51.53-2.85,4.03-5.68,7.48-7.92,11.29-4.87,8.3-10,16.51-13.97,25.24-4.64,10.23-2.74,20.23,4.05,29.15,.06,.08,.13,.17,.19,.25,9.79,12.86,24.32,21.26,40.32,23.56,25.19,3.62,49.37,3.38,72.63-.35Zm67.03-154.74c.15-1.82,.24-3.64,.45-6.76,0-.87,.22-3.06-.05-5.18-.53-4.22,1.55-5.66,5.37-5.84,6.88-.32,11.75,3.99,12.18,10.97,.41,6.48-5.16,12.5-11.91,12.9-5.39,.31-6.47-.78-6.04-6.09Zm-40.22-106.63c-7.54-.06-15.04-.41-22.16-2.23-6.67-1.71-12.93-4.99-19.37-7.58-1.12-.45-2.23-.92-3.34-1.38,4.02-.65,7.76-.04,11.52,.04,1.52,.03,3.06-1.09,4.59-1.69-1.27-.93-2.46-2.5-3.83-2.68-9.08-1.16-18.21-1.92-27.3-3.03-7.77-.94-15.5-2.16-23.25-3.26,.02-.58,.04-1.16,.05-1.74,3.02-.45,6.08-.72,9.04-1.44,1.1-.26,1.96-1.56,2.94-2.39-1.12-.7-2.21-1.9-3.37-1.99-2.3-.18-4.65,.2-6.96,.47-8.16,.94-16.3,1.94-24.41,2.92,.79-2.19,1.33-3.69,1.88-5.19-1.5-.43-2.98-1.04-4.5-1.26-5.24-.77-10.49-1.4-15.73-2.09,.08-.52,.16-1.03,.24-1.55,45.98-4.35,87.22,7.86,123.96,36.07Zm-13.26,219.58c.3-.51,.6-1.03,.9-1.54,2.45,.92,6.7,1.43,7.02,2.83,1.19,5.19,1.08,10.67,1.46,16.04-.76,.05-1.52,.11-2.28,.16-.36-3.33-.08-6.92-1.28-9.92-1.13-2.85-3.82-5.07-5.82-7.57Zm-3.22-12.19c1.31-2.66,2.62-5.33,3.93-8,.55,.14,1.11,.27,1.66,.41,1.42,4.23,2.83,8.46,4.25,12.69-.5,.23-.99,.47-1.49,.7-1.13-1.96-2.27-3.92-3.22-5.55-2.06-.1-3.6-.17-5.13-.25Zm-4.74-5.13c-1.45-2.05-2.58-3.64-4.49-6.35,3.74,.34,6.1,.56,9.42,.87-2,2.23-3.26,3.63-4.93,5.48Zm-30.27,30.19c-2.67-9.42-4.38-19.11-6.7-28.64-.78-3.16-.02-5.08,3.3-6.16,.57,.86,1.15,1.64,1.65,2.48,3.44,5.77,5.85,5.87,9.97,.29,1.83-2.48,3.53-5.06,5.98-8.61,6.27,18.34,12.06,35.27,17.97,52.57-13.13,3.28-25.81,5.76-39.13,4.99,.61-1.28,1.47-2.04,2.41-2.66,5.34-3.55,6.3-8.11,4.55-14.26Zm-7.21-52.7c8.67-.42,16.4-.8,25.59-1.26-5.59,7.43-10.28,13.64-15.46,20.52-3.66-6.96-6.71-12.76-10.13-19.26Zm-52.63,64.74c6.99-18.88,13.42-36.24,20.15-54.41,3.37,4.43,6.06,8.18,8.97,11.75,3.46,4.25,4.54,4.03,7.75-.49,.88-1.24,2.58-1.9,3.91-2.82,.19,1.51,.84,3.13,.51,4.51-2.11,8.9-4,17.88-6.81,26.55-2.45,7.57-2.63,13.95,4.61,18.87,.26,.18,.19,.83,.54,2.6-13.3-2.2-25.99-4.3-39.63-6.56Zm32.71-45.82c-5.14-6.96-9.63-13.03-14.93-20.2,9.1,.47,16.91,.88,25.61,1.34-3.7,6.54-6.99,12.33-10.68,18.86Zm-29.8,4.18c-1.95-2.49-3.5-4.46-5.55-7.07,4.13-.32,7.28-.55,11.5-.87-2.32,3.1-3.94,5.26-5.95,7.94Zm-11.08-3.47c.49-.08,.98-.17,1.47-.25,1.83,2.59,3.65,5.19,5.48,7.78-.3,.43-.6,.87-.9,1.3-1.67-.61-3.34-1.23-5.2-1.91-1.08,3.02-2.23,6.24-3.38,9.45-.55-.17-1.1-.35-1.64-.53,1.39-5.28,2.78-10.56,4.17-15.84Zm150.94-106.46c-.67,7.96-.57,15.99-1.38,23.93-2.95,28.87-16,43.67-44.23,49.74-24.12,5.18-48.53,5.96-73.07,3.61-12.8-1.23-25.48-2.85-37.53-7.74-8.33-3.38-14.69-8.4-18.41-17.1-7.59-17.73-7.84-36.29-7.45-54.99l.44-16.79c1.74-10.34,2.66-20.85,5.1-31.01,3.16-13.07,6.65-26.18,15.34-37.11,2.25-2.83,4.39-3.49,8.04-3.07,28.94,3.31,57.88,6.75,86.91,9.17,13.73,1.15,27.64,.04,41.47,.22,2.19,.03,5.44,.8,6.38,2.34,11.94,19.46,17.3,40.84,17.94,64.44l.45,14.36Zm-212.84,3.09c2.08-4.57,5.99-6.63,10.76-6.69,3.58-.05,6.55,1.14,5.93,5.85-.28,2.12-.05,4.3-.05,6.45h.11c0,2.49,.28,5.02-.12,7.44-.21,1.29-1.41,3.16-2.5,3.43-4.87,1.21-9.15-.23-12.55-4.01-3.39-3.79-3.6-8.03-1.58-12.47Z"/><path class="cls-1" d="M591.61,92.99c1.6,1.72,2.47,3.3,3.14,3.22,1.19-.15,2.87-1.05,3.27-2.06,.89-2.29,.86-4.92,1.67-7.25,2.67-7.65,5.64-15.2,8.25-22.87,.46-1.35-.25-3.09-.42-4.66-1.33,.69-3.45,1.06-3.87,2.11-4.16,10.41-8.04,20.93-12.04,31.51Z"/><path class="cls-1" d="M817.52,196.08c1.15-.4,3.06-.53,3.32-1.26,1.69-4.65,3.18-9.4,4.33-14.21,.27-1.13-1-2.63-2.08-5.17-1.52,2.12-2.48,2.98-2.84,4.05-1.43,4.24-2.82,8.52-3.89,12.86-.26,1.09,.74,2.48,1.16,3.73Z"/></g></g><rect class="cls-2" x="719.3" y="120.73" width="62.59" height="23.13" rx="11.57" ry="11.57"/><rect class="cls-2" x="644.18" y="120.73" width="62.59" height="23.13" rx="11.57" ry="11.57"/><rect class="cls-2" x="644.18" y="120.73" width="62.59" height="23.13" rx="11.57" ry="11.57" transform="translate(807.78 -543.18) rotate(90)"/></svg>